<svg xmlns="http://www.w3.org/2000/svg" version="1.1" xmlns:xlink="http://www.w3.org/1999/xlink" xmlns:svgjs="http://svgjs.dev/svgjs" width="1440" height="676" preserveAspectRatio="none" viewBox="0 0 1440 676"><g mask="url(&quot;#SvgjsMask1382&quot;)" fill="none"><rect width="1440" height="676" x="0" y="0" fill="url(&quot;#SvgjsLinearGradient1383&quot;)"></rect><path d="M1440 0L1191.65 0L1440 166.71z" fill="rgba(255, 255, 255, .1)"></path><path d="M1191.65 0L1440 166.71L1440 268.71000000000004L538.58 0z" fill="rgba(255, 255, 255, .075)"></path><path d="M538.5799999999999 0L1440 268.71000000000004L1440 342.04L284.5999999999999 0z" fill="rgba(255, 255, 255, .05)"></path><path d="M284.5999999999999 0L1440 342.04L1440 475.11L153.45999999999992 0z" fill="rgba(255, 255, 255, .025)"></path><path d="M0 676L243.62 676L0 577.53z" fill="rgba(0, 0, 0, .1)"></path><path d="M0 577.53L243.62 676L328.27 676L0 449.04999999999995z" fill="rgba(0, 0, 0, .075)"></path><path d="M0 449.05L328.27 676L786.5699999999999 676L0 407.29z" fill="rgba(0, 0, 0, .05)"></path><path d="M0 407.29L786.5699999999999 676L1034.1599999999999 676L0 226.49z" fill="rgba(0, 0, 0, .025)"></path></g><defs><mask id="SvgjsMask1382"><rect width="1440" height="676" fill="#ffffff"></rect></mask><linearGradient x1="50%" y1="0%" x2="50%" y2="100%" gradientUnits="userSpaceOnUse" id="SvgjsLinearGradient1383"><stop stop-color="#0e2a47" offset="0"></stop><stop stop-color="rgba(234, 69, 69, 1)" offset="1"></stop></linearGradient></defs></svg>