<svg xmlns="http://www.w3.org/2000/svg" version="1.1" xmlns:xlink="http://www.w3.org/1999/xlink" xmlns:svgjs="http://svgjs.dev/svgjs" width="1440" height="676" preserveAspectRatio="none" viewBox="0 0 1440 676"><g mask="url(&quot;#SvgjsMask3063&quot;)" fill="none"><rect width="1440" height="676" x="0" y="0" fill="url(&quot;#SvgjsLinearGradient3064&quot;)"></rect><path d="M1440 0L767.81 0L1440 281.05z" fill="rgba(255, 255, 255, .1)"></path><path d="M767.81 0L1440 281.05L1440 323.36L541.6299999999999 0z" fill="rgba(255, 255, 255, .075)"></path><path d="M541.6299999999999 0L1440 323.36L1440 380.07L289.1399999999999 0z" fill="rgba(255, 255, 255, .05)"></path><path d="M289.1399999999999 0L1440 380.07L1440 495.84L197.69999999999987 0z" fill="rgba(255, 255, 255, .025)"></path><path d="M0 676L592.61 676L0 666.41z" fill="rgba(0, 0, 0, .1)"></path><path d="M0 666.41L592.61 676L806.15 676L0 458.91999999999996z" fill="rgba(0, 0, 0, .075)"></path><path d="M0 458.91999999999996L806.15 676L967.41 676L0 428.73999999999995z" fill="rgba(0, 0, 0, .05)"></path><path d="M0 428.74L967.41 676L975.8299999999999 676L0 367.71000000000004z" fill="rgba(0, 0, 0, .025)"></path></g><defs><mask id="SvgjsMask3063"><rect width="1440" height="676" fill="#ffffff"></rect></mask><linearGradient x1="50%" y1="0%" x2="50%" y2="100%" gradientUnits="userSpaceOnUse" id="SvgjsLinearGradient3064"><stop stop-color="rgba(211, 216, 220, 1)" offset="0.07"></stop><stop stop-color="rgba(237, 237, 237, 1)" offset="0.33"></stop></linearGradient></defs></svg>