<svg xmlns="http://www.w3.org/2000/svg" version="1.1" xmlns:xlink="http://www.w3.org/1999/xlink" xmlns:svgjs="http://svgjs.dev/svgjs" width="1440" height="676" preserveAspectRatio="none" viewBox="0 0 1440 676"><g mask="url(&quot;#SvgjsMask1734&quot;)" fill="none"><rect width="1440" height="676" x="0" y="0" fill="url(&quot;#SvgjsLinearGradient1735&quot;)"></rect><path d="M0 0L132.8 0L0 92.81z" fill="rgba(255, 255, 255, .1)"></path><path d="M0 92.81L132.8 0L450.47 0L0 130.6z" fill="rgba(255, 255, 255, .075)"></path><path d="M0 130.6L450.47 0L775.73 0L0 131.26z" fill="rgba(255, 255, 255, .05)"></path><path d="M0 131.26L775.73 0L1112.9 0L0 297.71z" fill="rgba(255, 255, 255, .025)"></path><path d="M1440 676L982.22 676L1440 617.21z" fill="rgba(0, 0, 0, .1)"></path><path d="M1440 617.21L982.22 676L465.93000000000006 676L1440 564.9000000000001z" fill="rgba(0, 0, 0, .075)"></path><path d="M1440 564.9L465.93000000000006 676L182.91000000000008 676L1440 451.85999999999996z" fill="rgba(0, 0, 0, .05)"></path><path d="M1440 451.86L182.91000000000008 676L126.94000000000008 676L1440 411.35z" fill="rgba(0, 0, 0, .025)"></path></g><defs><mask id="SvgjsMask1734"><rect width="1440" height="676" fill="#ffffff"></rect></mask><linearGradient x1="50%" y1="100%" x2="50%" y2="0%" gradientUnits="userSpaceOnUse" id="SvgjsLinearGradient1735"><stop stop-color="rgba(211, 216, 220, 1)" offset="0.05"></stop><stop stop-color="rgba(211, 216, 220, 1)" offset="0.93"></stop><stop stop-color="rgba(237, 237, 237, 1)" offset="1"></stop></linearGradient></defs></svg>